<svg xmlns="http://www.w3.org/2000/svg" width="32" height="48" viewBox="0 0 32 48">
  <!-- Marker shape -->
  <path fill="#2EAF4A" d="M16 0C8 0 2 7 2 15c0 12 14 33 14 33s14-21 14-33C30 7 24 0 16 0z"/>

  <!-- White circle -->
  <circle cx="16" cy="16" r="10" fill="white"/>

  <!-- Your car SVG inserted + transformed -->
  <g transform="translate(9,8) scale(0.22)">
    <path fill="#231F20" d="M60,28c0-8.301-5.016-24-24-24h-8C9.016,4,4,19.699,4,28c-2.211,0-4,1.789-4,4v16c0,2.211,1.789,4,4,4h4v4
      c0,2.211,1.789,4,4,4h4c2.211,0,4-1.789,4-4v-4h24v4c0,2.211,1.789,4,4,4h4c2.211,0,4-1.789,4-4v-4h4c2.211,0,4-1.789,4-4V32
      C64,29.789,62.211,28,60,28z M16,44c-2.211,0-4-1.789-4-4s1.789-4,4-4s4,1.789,4,4S18.211,44,16,44z M12,28c0-0.652,0.184-16,16-16
      h8c15.41,0,15.984,14.379,16,16H12z M48,44c-2.211,0-4-1.789-4-4s1.789-4,4-4s4,1.789,4,4S50.211,44,48,44z"/>
  </g>
</svg>
